<mxfile host="app.diagrams.net" modified="2023-10-06T08:56:47.924Z" agent="Mozilla/5.0 (Windows NT 10.0; Win64; x64) AppleWebKit/537.36 (KHTML, like Gecko) Chrome/117.0.0.0 Safari/537.36 Edg/117.0.2045.43" etag="Ej70QJuicrgaubsqAiaA" version="22.0.3" type="device">
  <diagram id="H7wHhIf_jRC70F0b4fa9" name="Page-1">
    <mxGraphModel dx="1124" dy="831" grid="1" gridSize="10" guides="1" tooltips="1" connect="1" arrows="1" fold="1" page="1" pageScale="1" pageWidth="827" pageHeight="1169" math="0" shadow="0">
      <root>
        <mxCell id="0" />
        <mxCell id="1" parent="0" />
        <mxCell id="qsL9BaWj5W6s7MIQfXEd-1" value="" style="ellipse;shape=cloud;whiteSpace=wrap;html=1;" parent="1" vertex="1">
          <mxGeometry x="380" y="140" width="320" height="180" as="geometry" />
        </mxCell>
        <mxCell id="qsL9BaWj5W6s7MIQfXEd-2" value="" style="shape=image;html=1;verticalAlign=top;verticalLabelPosition=bottom;labelBackgroundColor=#ffffff;imageAspect=0;aspect=fixed;image=https://cdn0.iconfinder.com/data/icons/phosphor-light-vol-2/256/flashlight-light-128.png;rotation=90;" parent="1" vertex="1">
          <mxGeometry x="139" y="50" width="128" height="128" as="geometry" />
        </mxCell>
        <mxCell id="qsL9BaWj5W6s7MIQfXEd-3" value="" style="shape=mxgraph.signs.tech.camera_1;html=1;pointerEvents=1;fillColor=#000000;strokeColor=none;verticalLabelPosition=bottom;verticalAlign=top;align=center;" parent="1" vertex="1">
          <mxGeometry x="130" y="190" width="98" height="84" as="geometry" />
        </mxCell>
        <mxCell id="qsL9BaWj5W6s7MIQfXEd-4" value="" style="shape=flexArrow;endArrow=classic;html=1;rounded=0;entryX=-0.117;entryY=0.149;entryDx=0;entryDy=0;entryPerimeter=0;" parent="1" source="qsL9BaWj5W6s7MIQfXEd-2" target="qsL9BaWj5W6s7MIQfXEd-10" edge="1">
          <mxGeometry width="50" height="50" relative="1" as="geometry">
            <mxPoint x="260" y="120" as="sourcePoint" />
            <mxPoint x="520" y="114" as="targetPoint" />
          </mxGeometry>
        </mxCell>
        <mxCell id="qsL9BaWj5W6s7MIQfXEd-9" value="" style="endArrow=classic;html=1;rounded=0;exitX=0;exitY=0.5;exitDx=0;exitDy=0;" parent="1" source="qsL9BaWj5W6s7MIQfXEd-10" edge="1">
          <mxGeometry width="50" height="50" relative="1" as="geometry">
            <mxPoint x="520" y="110" as="sourcePoint" />
            <mxPoint x="230" y="230" as="targetPoint" />
          </mxGeometry>
        </mxCell>
        <mxCell id="qsL9BaWj5W6s7MIQfXEd-11" value="&lt;font style=&quot;font-size: 24px;&quot;&gt;back scatter&lt;/font&gt;" style="edgeLabel;html=1;align=center;verticalAlign=middle;resizable=0;points=[];rotation=0;fontSize=24;" parent="qsL9BaWj5W6s7MIQfXEd-9" vertex="1" connectable="0">
          <mxGeometry x="0.3515" relative="1" as="geometry">
            <mxPoint x="6" y="-17" as="offset" />
          </mxGeometry>
        </mxCell>
        <mxCell id="qsL9BaWj5W6s7MIQfXEd-10" value="" style="ellipse;whiteSpace=wrap;html=1;fillColor=#000000;" parent="1" vertex="1">
          <mxGeometry x="520" y="225" width="10" height="10" as="geometry" />
        </mxCell>
        <mxCell id="qsL9BaWj5W6s7MIQfXEd-12" value="" style="ellipse;shape=cloud;whiteSpace=wrap;html=1;" parent="1" vertex="1">
          <mxGeometry x="380" y="384" width="320" height="180" as="geometry" />
        </mxCell>
        <mxCell id="qsL9BaWj5W6s7MIQfXEd-13" value="" style="shape=image;html=1;verticalAlign=top;verticalLabelPosition=bottom;labelBackgroundColor=#ffffff;imageAspect=0;aspect=fixed;image=https://cdn0.iconfinder.com/data/icons/phosphor-light-vol-2/256/flashlight-light-128.png;rotation=90;" parent="1" vertex="1">
          <mxGeometry x="139" y="300" width="128" height="128" as="geometry" />
        </mxCell>
        <mxCell id="qsL9BaWj5W6s7MIQfXEd-14" value="" style="shape=mxgraph.signs.tech.camera_1;html=1;pointerEvents=1;fillColor=#000000;strokeColor=none;verticalLabelPosition=bottom;verticalAlign=top;align=center;" parent="1" vertex="1">
          <mxGeometry x="30" y="440" width="98" height="84" as="geometry" />
        </mxCell>
        <mxCell id="qsL9BaWj5W6s7MIQfXEd-15" value="" style="shape=flexArrow;endArrow=classic;html=1;rounded=0;entryX=-0.117;entryY=0.195;entryDx=0;entryDy=0;entryPerimeter=0;" parent="1" source="qsL9BaWj5W6s7MIQfXEd-13" target="qsL9BaWj5W6s7MIQfXEd-18" edge="1">
          <mxGeometry width="50" height="50" relative="1" as="geometry">
            <mxPoint x="260" y="370" as="sourcePoint" />
            <mxPoint x="520" y="364" as="targetPoint" />
          </mxGeometry>
        </mxCell>
        <mxCell id="qsL9BaWj5W6s7MIQfXEd-16" value="" style="endArrow=classic;html=1;rounded=0;exitX=0;exitY=0.5;exitDx=0;exitDy=0;" parent="1" source="qsL9BaWj5W6s7MIQfXEd-18" edge="1">
          <mxGeometry width="50" height="50" relative="1" as="geometry">
            <mxPoint x="520" y="360" as="sourcePoint" />
            <mxPoint x="130" y="480" as="targetPoint" />
          </mxGeometry>
        </mxCell>
        <mxCell id="qsL9BaWj5W6s7MIQfXEd-17" value="&lt;font style=&quot;font-size: 24px;&quot;&gt;back scatter&lt;/font&gt;" style="edgeLabel;html=1;align=center;verticalAlign=middle;resizable=0;points=[];rotation=0;fontSize=24;" parent="qsL9BaWj5W6s7MIQfXEd-16" vertex="1" connectable="0">
          <mxGeometry x="0.3515" relative="1" as="geometry">
            <mxPoint x="74" y="-19" as="offset" />
          </mxGeometry>
        </mxCell>
        <mxCell id="qsL9BaWj5W6s7MIQfXEd-18" value="" style="ellipse;whiteSpace=wrap;html=1;fillColor=#000000;" parent="1" vertex="1">
          <mxGeometry x="520" y="477" width="10" height="10" as="geometry" />
        </mxCell>
        <mxCell id="qsL9BaWj5W6s7MIQfXEd-21" value="" style="endArrow=none;dashed=1;html=1;dashPattern=1 3;strokeWidth=2;rounded=0;" parent="1" edge="1">
          <mxGeometry width="50" height="50" relative="1" as="geometry">
            <mxPoint x="228" y="560" as="sourcePoint" />
            <mxPoint x="228" y="230" as="targetPoint" />
          </mxGeometry>
        </mxCell>
        <mxCell id="qsL9BaWj5W6s7MIQfXEd-22" value="" style="endArrow=none;dashed=1;html=1;dashPattern=1 3;strokeWidth=2;rounded=0;exitX=0.169;exitY=0.828;exitDx=0;exitDy=0;exitPerimeter=0;" parent="1" source="3gP5RAvdJr5DbvSrzTiX-4" edge="1">
          <mxGeometry width="50" height="50" relative="1" as="geometry">
            <mxPoint x="128" y="560" as="sourcePoint" />
            <mxPoint x="128" y="470" as="targetPoint" />
          </mxGeometry>
        </mxCell>
        <mxCell id="3gP5RAvdJr5DbvSrzTiX-1" value="" style="swimlane;startSize=0;dashed=1;strokeWidth=3;" parent="1" vertex="1">
          <mxGeometry x="10" y="70" width="700" height="250" as="geometry">
            <mxRectangle x="10" y="70" width="50" height="40" as="alternateBounds" />
          </mxGeometry>
        </mxCell>
        <mxCell id="3gP5RAvdJr5DbvSrzTiX-2" value="&lt;span style=&quot;font-size: 24px;&quot;&gt;&lt;i style=&quot;font-size: 24px;&quot;&gt;Setup 1&lt;/i&gt;&lt;/span&gt;" style="text;html=1;align=center;verticalAlign=middle;resizable=0;points=[];autosize=1;strokeColor=none;fillColor=none;fontSize=24;" parent="3gP5RAvdJr5DbvSrzTiX-1" vertex="1">
          <mxGeometry x="-6" y="2" width="110" height="40" as="geometry" />
        </mxCell>
        <mxCell id="3gP5RAvdJr5DbvSrzTiX-4" value="" style="swimlane;startSize=0;dashed=1;strokeWidth=3;" parent="1" vertex="1">
          <mxGeometry x="10" y="320" width="700" height="290" as="geometry">
            <mxRectangle x="10" y="70" width="50" height="40" as="alternateBounds" />
          </mxGeometry>
        </mxCell>
        <mxCell id="JJMQypXPdMPuCgBHGhyQ-1" value="&lt;span style=&quot;font-size: 24px;&quot;&gt;&lt;i style=&quot;font-size: 24px;&quot;&gt;Setup 2&lt;/i&gt;&lt;/span&gt;" style="text;html=1;align=center;verticalAlign=middle;resizable=0;points=[];autosize=1;strokeColor=none;fillColor=none;fontSize=24;" parent="3gP5RAvdJr5DbvSrzTiX-4" vertex="1">
          <mxGeometry x="-6" y="2" width="110" height="40" as="geometry" />
        </mxCell>
        <mxCell id="qsL9BaWj5W6s7MIQfXEd-23" value="" style="shape=curlyBracket;whiteSpace=wrap;html=1;rounded=1;flipH=1;fillColor=#000000;rotation=90;" parent="3gP5RAvdJr5DbvSrzTiX-4" vertex="1">
          <mxGeometry x="158.24" y="158.99" width="20" height="101.05" as="geometry" />
        </mxCell>
        <mxCell id="qsL9BaWj5W6s7MIQfXEd-26" value="&lt;p class=&quot;MsoNormal&quot; style=&quot;font-size: 24px;&quot;&gt;&lt;span lang=&quot;EN-US&quot; style=&quot;font-size: 24px;&quot;&gt;&lt;font style=&quot;font-size: 24px;&quot;&gt;Î”z&lt;/font&gt;&lt;/span&gt;&lt;/p&gt;" style="text;html=1;strokeColor=none;fillColor=none;spacing=5;spacingTop=-20;whiteSpace=wrap;overflow=hidden;rounded=0;labelBackgroundColor=none;fontSize=24;" parent="3gP5RAvdJr5DbvSrzTiX-4" vertex="1">
          <mxGeometry x="148.75" y="203.5" width="51.25" height="40.5" as="geometry" />
        </mxCell>
        <mxCell id="JJMQypXPdMPuCgBHGhyQ-3" value="&lt;p class=&quot;MsoNormal&quot; style=&quot;font-size: 24px;&quot;&gt;&lt;span lang=&quot;EN-US&quot; style=&quot;font-size: 24px;&quot;&gt;&lt;font style=&quot;font-size: 24px;&quot;&gt;z&lt;sub style=&quot;font-size: 24px;&quot;&gt;1&lt;/sub&gt;&lt;/font&gt;&lt;/span&gt;&lt;/p&gt;" style="text;html=1;strokeColor=none;fillColor=none;spacing=5;spacingTop=-20;whiteSpace=wrap;overflow=hidden;rounded=0;labelBackgroundColor=none;fontSize=24;" parent="3gP5RAvdJr5DbvSrzTiX-4" vertex="1">
          <mxGeometry x="200" y="220" width="40" height="46" as="geometry" />
        </mxCell>
        <mxCell id="JJMQypXPdMPuCgBHGhyQ-4" value="&lt;p class=&quot;MsoNormal&quot; style=&quot;font-size: 24px;&quot;&gt;&lt;span lang=&quot;EN-US&quot; style=&quot;font-size: 24px;&quot;&gt;&lt;font style=&quot;font-size: 24px;&quot;&gt;z&lt;/font&gt;&lt;font style=&quot;font-size: 24px;&quot;&gt;&lt;sub style=&quot;font-size: 24px;&quot;&gt;2&lt;/sub&gt;&lt;/font&gt;&lt;/span&gt;&lt;/p&gt;" style="text;html=1;strokeColor=none;fillColor=none;spacing=5;spacingTop=-20;whiteSpace=wrap;overflow=hidden;rounded=0;labelBackgroundColor=none;fontSize=24;" parent="3gP5RAvdJr5DbvSrzTiX-4" vertex="1">
          <mxGeometry x="98.75" y="220" width="50" height="46" as="geometry" />
        </mxCell>
        <mxCell id="JJMQypXPdMPuCgBHGhyQ-5" value="" style="endArrow=none;dashed=1;html=1;dashPattern=1 3;strokeWidth=2;rounded=0;entryX=0.234;entryY=0.061;entryDx=0;entryDy=0;entryPerimeter=0;" parent="3gP5RAvdJr5DbvSrzTiX-4" target="qsL9BaWj5W6s7MIQfXEd-2" edge="1">
          <mxGeometry width="50" height="50" relative="1" as="geometry">
            <mxPoint x="249.25" y="240" as="sourcePoint" />
            <mxPoint x="249.25" y="-90" as="targetPoint" />
          </mxGeometry>
        </mxCell>
        <mxCell id="JJMQypXPdMPuCgBHGhyQ-6" value="&lt;p class=&quot;MsoNormal&quot; style=&quot;font-size: 24px;&quot;&gt;&lt;span lang=&quot;EN-US&quot; style=&quot;font-size: 24px;&quot;&gt;&lt;font style=&quot;font-size: 24px;&quot;&gt;z&lt;/font&gt;&lt;font style=&quot;font-size: 24px;&quot;&gt;&lt;sub style=&quot;font-size: 24px;&quot;&gt;0&lt;/sub&gt;&lt;/font&gt;&lt;/span&gt;&lt;/p&gt;" style="text;html=1;strokeColor=none;fillColor=none;spacing=5;spacingTop=-20;whiteSpace=wrap;overflow=hidden;rounded=0;labelBackgroundColor=none;fontSize=24;" parent="3gP5RAvdJr5DbvSrzTiX-4" vertex="1">
          <mxGeometry x="231.25" y="220" width="48.75" height="46" as="geometry" />
        </mxCell>
      </root>
    </mxGraphModel>
  </diagram>
</mxfile>
